<svg xmlns="http://www.w3.org/2000/svg" xmlns:xlink="http://www.w3.org/1999/xlink" xmlns:s="https://github.com/nturley/netlistsvg" width="928" height="461.5"><style>    svg {
        stroke:#000;
        fill:none;
    }
    text {
        fill:#000;
        stroke:none;
        font-size:10px;
        font-weight: bold;
        font-family: "Courier New", monospace;
    }
    line {
        stroke-linecap: round;
    }
    .nodelabel {
        text-anchor: middle;
    }
    .inputPortLabel {
        text-anchor: end;
    }
    .splitjoinBody {
        fill:#000;
    }</style><g s:type="add" transform="translate(238,178.5)" s:width="30" s:height="30" id="cell_$add$/home/groot/openMIPS/vsrc/pc_reg.v:35$5"><s:alias val="$add"/><circle r="15" cx="12.5" cy="12.5" class="cell_$add$/home/groot/openMIPS/vsrc/pc_reg.v:35$5"/><line x1="7.5" x2="17.5" y1="12.5" y2="12.5" class="cell_$add$/home/groot/openMIPS/vsrc/pc_reg.v:35$5"/><line x1="12.5" x2="12.5" y1="7.5" y2="17.5" class="cell_$add$/home/groot/openMIPS/vsrc/pc_reg.v:35$5"/><g s:x="0" s:y="2.5" s:pid="A"/><g s:x="0" s:y="22.5" s:pid="B"/><g s:x="27.5" s:y="12.5" s:pid="Y"/></g><g s:type="not" transform="translate(775,79)" s:width="30" s:height="20" id="cell_$eq$/home/groot/openMIPS/vsrc/pc_reg.v:26$2"><s:alias val="$_NOT_"/><s:alias val="$not"/><s:alias val="$logic_not"/><path style="fill:#FFE680" d="M0,0 L0,20 L20,10 Z" class="cell_$eq$/home/groot/openMIPS/vsrc/pc_reg.v:26$2"/><circle cx="24" cy="10" r="3" class="cell_$eq$/home/groot/openMIPS/vsrc/pc_reg.v:26$2"/><g s:x="-1" s:y="10" s:pid="A"/><g s:x="27" s:y="10" s:pid="Y"/></g><g s:type="not" transform="translate(775,348.5)" s:width="30" s:height="20" id="cell_$eq$/home/groot/openMIPS/vsrc/pc_reg.v:30$3"><s:alias val="$_NOT_"/><s:alias val="$not"/><s:alias val="$logic_not"/><path style="fill:#FFE680" d="M0,0 L0,20 L20,10 Z" class="cell_$eq$/home/groot/openMIPS/vsrc/pc_reg.v:30$3"/><circle cx="24" cy="10" r="3" class="cell_$eq$/home/groot/openMIPS/vsrc/pc_reg.v:30$3"/><g s:x="-1" s:y="10" s:pid="A"/><g s:x="27" s:y="10" s:pid="Y"/></g><g s:type="dff" transform="translate(702,22)" s:width="30" s:height="40" id="cell_$procdff$19"><s:alias val="$dff"/><s:alias val="$_DFF_"/><s:alias val="$_DFF_P_"/><s:alias val="$adff"/><s:alias val="$_DFF_"/><s:alias val="$_DFF_P_"/><s:alias val="$sdff"/><s:alias val="$_DFF_"/><s:alias val="$_DFF_P_"/><rect style="fill:#29F7A4" width="30" height="40" x="0" y="0" class="cell_$procdff$19"/><path d="M0,35 L5,30 L0,25" class="cell_$procdff$19"/><g s:x="31" s:y="10" s:pid="Q"/><g s:x="-1" s:y="30" s:pid="CLK"/><g s:x="-1" s:y="30" s:pid="C"/><g s:x="-1" s:y="10" s:pid="D"/><g s:x="15" s:y="40" s:pid="ARST"/><g s:x="15" s:y="40" s:pid="SRST"/><text x="2.0" y="10" class="smalltext">D</text><text x="20.0" y="10" class="smalltext rtext">Q</text><text x="6.0" y="33" class="smalltext">CLK</text><text x="5.0" y="22" class="verysmalltext">dff</text></g><g s:type="generic" transform="translate(96,165.5)" s:width="60" s:height="45" id="cell_$procdff$20"><text x="30" y="-4" class="nodelabel cell_$procdff$20" s:attribute="ref">$dff-bus-bus</text><rect style="fill:#EDF5FF" width="60" height="45" rx="5" ry="5" s:generic="body" class="cell_$procdff$20"/><g transform="translate(0,15)" s:x="0" s:y="15" s:pid="in0" id="port_$procdff$20~CLK"><text x="-3" y="-4" class="inputPortLabel cell_$procdff$20">CLK</text></g><g transform="translate(0,35)" s:x="0" s:y="15" s:pid="in0" id="port_$procdff$20~D"><text x="-3" y="-4" class="inputPortLabel cell_$procdff$20">D</text></g><g transform="translate(60,15)" s:x="60" s:y="15" s:pid="out0" id="port_$procdff$20~Q"><text x="5" y="-4" style="fill:#000; stroke:none" class="cell_$procdff$20">Q</text></g></g><g s:type="generic" transform="translate(423,175.5)" s:width="60" s:height="45" id="cell_$procmux$12"><text x="30" y="-4" class="nodelabel cell_$procmux$12" s:attribute="ref">$mux-bus-bus</text><rect style="fill:#EDF5FF" width="60" height="65" rx="5" ry="5" s:generic="body" class="cell_$procmux$12"/><g transform="translate(0,15)" s:x="0" s:y="15" s:pid="in0" id="port_$procmux$12~A"><text x="-3" y="-4" class="inputPortLabel cell_$procmux$12">A</text></g><g transform="translate(0,35)" s:x="0" s:y="15" s:pid="in0" id="port_$procmux$12~B"><text x="-3" y="-4" class="inputPortLabel cell_$procmux$12">B</text></g><g transform="translate(0,55)" s:x="0" s:y="15" s:pid="in0" id="port_$procmux$12~S"><text x="-3" y="-4" class="inputPortLabel cell_$procmux$12">S</text></g><g transform="translate(60,15)" s:x="60" s:y="15" s:pid="out0" id="port_$procmux$12~Y"><text x="5" y="-4" style="fill:#000; stroke:none" class="cell_$procmux$12">Y</text></g></g><g s:type="generic" transform="translate(598,265.5)" s:width="60" s:height="45" id="cell_$procmux$14"><text x="30" y="-4" class="nodelabel cell_$procmux$14" s:attribute="ref">$mux-bus-bus</text><rect style="fill:#EDF5FF" width="60" height="65" rx="5" ry="5" s:generic="body" class="cell_$procmux$14"/><g transform="translate(0,15)" s:x="0" s:y="15" s:pid="in0" id="port_$procmux$14~A"><text x="-3" y="-4" class="inputPortLabel cell_$procmux$14">A</text></g><g transform="translate(0,35)" s:x="0" s:y="15" s:pid="in0" id="port_$procmux$14~B"><text x="-3" y="-4" class="inputPortLabel cell_$procmux$14">B</text></g><g transform="translate(0,55)" s:x="0" s:y="15" s:pid="in0" id="port_$procmux$14~S"><text x="-3" y="-4" class="inputPortLabel cell_$procmux$14">S</text></g><g transform="translate(60,15)" s:x="60" s:y="15" s:pid="out0" id="port_$procmux$14~Y"><text x="5" y="-4" style="fill:#000; stroke:none" class="cell_$procmux$14">Y</text></g></g><g s:type="generic" transform="translate(775,245.5)" s:width="60" s:height="45" id="cell_$procmux$17"><text x="30" y="-4" class="nodelabel cell_$procmux$17" s:attribute="ref">$mux-bus-bus</text><rect style="fill:#EDF5FF" width="60" height="65" rx="5" ry="5" s:generic="body" class="cell_$procmux$17"/><g transform="translate(0,15)" s:x="0" s:y="15" s:pid="in0" id="port_$procmux$17~A"><text x="-3" y="-4" class="inputPortLabel cell_$procmux$17">A</text></g><g transform="translate(0,35)" s:x="0" s:y="15" s:pid="in0" id="port_$procmux$17~B"><text x="-3" y="-4" class="inputPortLabel cell_$procmux$17">B</text></g><g transform="translate(0,55)" s:x="0" s:y="15" s:pid="in0" id="port_$procmux$17~S"><text x="-3" y="-4" class="inputPortLabel cell_$procmux$17">S</text></g><g transform="translate(60,15)" s:x="60" s:y="15" s:pid="out0" id="port_$procmux$17~Y"><text x="5" y="-4" style="fill:#000; stroke:none" class="cell_$procmux$17">Y</text></g></g><g s:type="mux" transform="translate(638,12)" s:width="20" s:height="40" id="cell_$procmux$9"><s:alias val="$pmux"/><s:alias val="$mux"/><s:alias val="$_MUX_"/><path style="fill:#eeaaff" d="M0,0 L20,10 L20,30 L0,40 Z" class="cell_$procmux$9"/><text x="5" y="13" class="nodelabel cell_$procmux$9" s:attribute="">0</text><text x="5" y="32" class="nodelabel cell_$procmux$9" s:attribute="">1</text><g s:x="0" s:y="10" s:pid="A"/><g s:x="0" s:y="30" s:pid="B"/><g s:x="10" s:y="35" s:pid="S"/><g s:x="20" s:y="20" s:pid="Y"/></g><g s:type="inputExt" transform="translate(12,54)" s:width="30" s:height="20" id="cell_clk"><text x="15" y="-4" class="nodelabel cell_clk" s:attribute="ref">clk</text><s:alias val="$_inputExt_"/><path style="fill:#FDF766" d="M0,0 L0,16 L15,16 L24,8 L15,0 Z" class="cell_clk"/><g s:x="24" s:y="8" s:pid="Y"/></g><g s:type="inputExt" transform="translate(526,83)" s:width="30" s:height="20" id="cell_rst"><text x="15" y="-4" class="nodelabel cell_rst" s:attribute="ref">rst</text><s:alias val="$_inputExt_"/><path style="fill:#FDF766" d="M0,0 L0,16 L15,16 L24,8 L15,0 Z" class="cell_rst"/><g s:x="24" s:y="8" s:pid="Y"/></g><g s:type="inputExt" transform="translate(303,373)" s:width="30" s:height="20" id="cell_stall"><text x="15" y="-4" class="nodelabel cell_stall" s:attribute="ref">stall</text><s:alias val="$_inputExt_"/><path style="fill:#FDF766" d="M0,0 L0,16 L15,16 L24,8 L15,0 Z" class="cell_stall"/><g s:x="24" s:y="8" s:pid="Y"/></g><g s:type="inputExt" transform="translate(303,242)" s:width="30" s:height="20" id="cell_branch_flag_i"><text x="15" y="-4" class="nodelabel cell_branch_flag_i" s:attribute="ref">branch_flag_i</text><s:alias val="$_inputExt_"/><path style="fill:#FDF766" d="M0,0 L0,16 L15,16 L24,8 L15,0 Z" class="cell_branch_flag_i"/><g s:x="24" s:y="8" s:pid="Y"/></g><g s:type="outputExt" transform="translate(775,24)" s:width="30" s:height="20" id="cell_ce"><text x="15" y="-4" class="nodelabel cell_ce" s:attribute="ref">ce</text><s:alias val="$_outputExt_"/><path style="fill:#66FDD9" d="M24,0 L24,16 L10,16 L0,8 L10,0 Z" class="cell_ce"/><g s:x="0" s:y="8" s:pid="A"/></g><g s:type="outputExt" transform="translate(775,413.5)" s:width="30" s:height="20" id="cell_pc"><text x="15" y="-4" class="nodelabel cell_pc" s:attribute="ref">pc</text><s:alias val="$_outputExt_"/><path style="fill:#66FDD9" d="M24,0 L24,16 L10,16 L0,8 L10,0 Z" class="cell_pc"/><g s:x="0" s:y="8" s:pid="A"/></g><g s:type="outputExt" transform="translate(768,144)" s:width="30" s:height="20" id="cell_branch_target_address_i"><text x="15" y="-4" class="nodelabel cell_branch_target_address_i" s:attribute="ref">branch_target_address_i</text><s:alias val="$_outputExt_"/><path style="fill:#66FDD9" d="M24,0 L24,16 L10,16 L0,8 L10,0 Z" class="cell_branch_target_address_i"/><g s:x="0" s:y="8" s:pid="A"/></g><g s:type="split" transform="translate(544,348)" s:width="5" s:height="40" id="cell_$split$,4,5,6,7,8,9,"><rect width="5" height="20" class="splitjoinBody" s:generic="body"/><s:alias val="$_split_"/><g s:x="0" s:y="20" s:pid="in"/><g transform="translate(4,10)" s:x="4" s:y="10" s:pid="out0"><text x="5" y="-4">0</text></g></g><line x1="157" x2="238" y1="181" y2="181" class="net_12,13,14,15,16,17,18,19,20,21,22,23,24,25,26,27,28,29,30,31,32,33,34,35,36,37,38,39,40,41,42,43 width_32" style="stroke-width: 2"/><line x1="157" x2="174" y1="181" y2="181" class="net_12,13,14,15,16,17,18,19,20,21,22,23,24,25,26,27,28,29,30,31,32,33,34,35,36,37,38,39,40,41,42,43 width_32" style="stroke-width: 2"/><line x1="174" x2="174" y1="181" y2="301" class="net_12,13,14,15,16,17,18,19,20,21,22,23,24,25,26,27,28,29,30,31,32,33,34,35,36,37,38,39,40,41,42,43 width_32" style="stroke-width: 2"/><circle cx="174" cy="181" r="3" style="fill:#000" class="net_12,13,14,15,16,17,18,19,20,21,22,23,24,25,26,27,28,29,30,31,32,33,34,35,36,37,38,39,40,41,42,43 width_32"/><line x1="174" x2="598" y1="301" y2="301" class="net_12,13,14,15,16,17,18,19,20,21,22,23,24,25,26,27,28,29,30,31,32,33,34,35,36,37,38,39,40,41,42,43 width_32" style="stroke-width: 2"/><line x1="157" x2="174" y1="181" y2="181" class="net_12,13,14,15,16,17,18,19,20,21,22,23,24,25,26,27,28,29,30,31,32,33,34,35,36,37,38,39,40,41,42,43 width_32" style="stroke-width: 2"/><line x1="174" x2="174" y1="181" y2="301" class="net_12,13,14,15,16,17,18,19,20,21,22,23,24,25,26,27,28,29,30,31,32,33,34,35,36,37,38,39,40,41,42,43 width_32" style="stroke-width: 2"/><line x1="174" x2="278" y1="301" y2="301" class="net_12,13,14,15,16,17,18,19,20,21,22,23,24,25,26,27,28,29,30,31,32,33,34,35,36,37,38,39,40,41,42,43 width_32" style="stroke-width: 2"/><line x1="278" x2="278" y1="301" y2="421.5" class="net_12,13,14,15,16,17,18,19,20,21,22,23,24,25,26,27,28,29,30,31,32,33,34,35,36,37,38,39,40,41,42,43 width_32" style="stroke-width: 2"/><circle cx="278" cy="301" r="3" style="fill:#000" class="net_12,13,14,15,16,17,18,19,20,21,22,23,24,25,26,27,28,29,30,31,32,33,34,35,36,37,38,39,40,41,42,43 width_32"/><line x1="278" x2="775" y1="421.5" y2="421.5" class="net_12,13,14,15,16,17,18,19,20,21,22,23,24,25,26,27,28,29,30,31,32,33,34,35,36,37,38,39,40,41,42,43 width_32" style="stroke-width: 2"/><line x1="733" x2="743" y1="32" y2="32" class="net_11 width_1" style="stroke-width: 1"/><line x1="743" x2="743" y1="32" y2="89" class="net_11 width_1" style="stroke-width: 1"/><circle cx="743" cy="32" r="2" style="fill:#000" class="net_11 width_1"/><circle cx="743" cy="89" r="2" style="fill:#000" class="net_11 width_1"/><line x1="743" x2="774" y1="89" y2="89" class="net_11 width_1" style="stroke-width: 1"/><line x1="733" x2="743" y1="32" y2="32" class="net_11 width_1" style="stroke-width: 1"/><line x1="743" x2="743" y1="32" y2="301" class="net_11 width_1" style="stroke-width: 1"/><line x1="743" x2="775" y1="301" y2="301" class="net_11 width_1" style="stroke-width: 1"/><line x1="733" x2="775" y1="32" y2="32" class="net_11 width_1" style="stroke-width: 1"/><line x1="549" x2="774" y1="358.5" y2="358.5" class="net_4 width_1" style="stroke-width: 1"/><line x1="549" x2="566" y1="358.5" y2="358.5" class="net_4 width_1" style="stroke-width: 1"/><line x1="566" x2="566" y1="358.5" y2="321" class="net_4 width_1" style="stroke-width: 1"/><circle cx="566" cy="358.5" r="2" style="fill:#000" class="net_4 width_1"/><line x1="566" x2="598" y1="321" y2="321" class="net_4 width_1" style="stroke-width: 1"/><line x1="36" x2="676" y1="62" y2="62" class="net_2 width_1" style="stroke-width: 1"/><line x1="676" x2="676" y1="62" y2="52" class="net_2 width_1" style="stroke-width: 1"/><line x1="676" x2="701" y1="52" y2="52" class="net_2 width_1" style="stroke-width: 1"/><line x1="36" x2="52" y1="62" y2="62" class="net_2 width_1" style="stroke-width: 1"/><line x1="52" x2="52" y1="62" y2="181" class="net_2 width_1" style="stroke-width: 1"/><circle cx="52" cy="62" r="2" style="fill:#000" class="net_2 width_1"/><line x1="52" x2="96" y1="181" y2="181" class="net_2 width_1" style="stroke-width: 1"/><line x1="658" x2="701" y1="32" y2="32" class="net_110 width_1" style="stroke-width: 1"/><line x1="836" x2="916" y1="261" y2="261" class="net_111,112,113,114,115,116,117,118,119,120,121,122,123,124,125,126,127,128,129,130,131,132,133,134,135,136,137,138,139,140,141,142 width_32" style="stroke-width: 2"/><line x1="916" x2="916" y1="261" y2="443.5" class="net_111,112,113,114,115,116,117,118,119,120,121,122,123,124,125,126,127,128,129,130,131,132,133,134,135,136,137,138,139,140,141,142 width_32" style="stroke-width: 2"/><line x1="916" x2="52" y1="443.5" y2="443.5" class="net_111,112,113,114,115,116,117,118,119,120,121,122,123,124,125,126,127,128,129,130,131,132,133,134,135,136,137,138,139,140,141,142 width_32" style="stroke-width: 2"/><line x1="52" x2="52" y1="443.5" y2="201" class="net_111,112,113,114,115,116,117,118,119,120,121,122,123,124,125,126,127,128,129,130,131,132,133,134,135,136,137,138,139,140,141,142 width_32" style="stroke-width: 2"/><line x1="52" x2="96" y1="201" y2="201" class="net_111,112,113,114,115,116,117,118,119,120,121,122,123,124,125,126,127,128,129,130,131,132,133,134,135,136,137,138,139,140,141,142 width_32" style="stroke-width: 2"/><line x1="265.5" x2="423" y1="191" y2="191" class="net_76,77,78,79,80,81,82,83,84,85,86,87,88,89,90,91,92,93,94,95,96,97,98,99,100,101,102,103,104,105,106,107 width_32" style="stroke-width: 2"/><line x1="391" x2="391" y1="152" y2="211" class="net_44,45,46,47,48,49,50,51,52,53,54,55,56,57,58,59,60,61,62,63,64,65,66,67,68,69,70,71,72,73,74,75 width_32" style="stroke-width: 2"/><line x1="391" x2="423" y1="211" y2="211" class="net_44,45,46,47,48,49,50,51,52,53,54,55,56,57,58,59,60,61,62,63,64,65,66,67,68,69,70,71,72,73,74,75 width_32" style="stroke-width: 2"/><line x1="391" x2="768" y1="152" y2="152" class="net_44,45,46,47,48,49,50,51,52,53,54,55,56,57,58,59,60,61,62,63,64,65,66,67,68,69,70,71,72,73,74,75 width_32" style="stroke-width: 2"/><line x1="327" x2="391" y1="250" y2="250" class="net_10 width_1" style="stroke-width: 1"/><line x1="391" x2="391" y1="250" y2="231" class="net_10 width_1" style="stroke-width: 1"/><line x1="391" x2="423" y1="231" y2="231" class="net_10 width_1" style="stroke-width: 1"/><line x1="484" x2="566" y1="191" y2="191" class="net_143,144,145,146,147,148,149,150,151,152,153,154,155,156,157,158,159,160,161,162,163,164,165,166,167,168,169,170,171,172,173,174 width_32" style="stroke-width: 2"/><line x1="566" x2="566" y1="191" y2="281" class="net_143,144,145,146,147,148,149,150,151,152,153,154,155,156,157,158,159,160,161,162,163,164,165,166,167,168,169,170,171,172,173,174 width_32" style="stroke-width: 2"/><line x1="566" x2="598" y1="281" y2="281" class="net_143,144,145,146,147,148,149,150,151,152,153,154,155,156,157,158,159,160,161,162,163,164,165,166,167,168,169,170,171,172,173,174 width_32" style="stroke-width: 2"/><line x1="659" x2="775" y1="281" y2="281" class="net_175,176,177,178,179,180,181,182,183,184,185,186,187,188,189,190,191,192,193,194,195,196,197,198,199,200,201,202,203,204,205,206 width_32" style="stroke-width: 2"/><line x1="550" x2="648" y1="91" y2="91" class="net_3 width_1" style="stroke-width: 1"/><line x1="648" x2="648" y1="91" y2="47" class="net_3 width_1" style="stroke-width: 1"/><line x1="327" x2="544.5" y1="381" y2="381" class="net_4,5,6,7,8,9 width_6" style="stroke-width: 2"/><line x1="544.5" x2="544.5" y1="381" y2="369" class="net_4,5,6,7,8,9 width_6" style="stroke-width: 2"/><rect x="452.5" y="416.5" width="22" height="9" class="net_12,13,14,15,16,17,18,19,20,21,22,23,24,25,26,27,28,29,30,31,32,33,34,35,36,37,38,39,40,41,42,43 width_32 busLabel_32" style="fill: white; stroke: none"/><text x="451.5" y="424.5" class="net_12,13,14,15,16,17,18,19,20,21,22,23,24,25,26,27,28,29,30,31,32,33,34,35,36,37,38,39,40,41,42,43 width_32 busLabel_32">/32/</text><rect x="452.5" y="416.5" width="22" height="9" class="net_12,13,14,15,16,17,18,19,20,21,22,23,24,25,26,27,28,29,30,31,32,33,34,35,36,37,38,39,40,41,42,43 width_32 busLabel_32" style="fill: white; stroke: none"/><text x="451.5" y="424.5" class="net_12,13,14,15,16,17,18,19,20,21,22,23,24,25,26,27,28,29,30,31,32,33,34,35,36,37,38,39,40,41,42,43 width_32 busLabel_32">/32/</text><rect x="452.5" y="416.5" width="22" height="9" class="net_12,13,14,15,16,17,18,19,20,21,22,23,24,25,26,27,28,29,30,31,32,33,34,35,36,37,38,39,40,41,42,43 width_32 busLabel_32" style="fill: white; stroke: none"/><text x="451.5" y="424.5" class="net_12,13,14,15,16,17,18,19,20,21,22,23,24,25,26,27,28,29,30,31,32,33,34,35,36,37,38,39,40,41,42,43 width_32 busLabel_32">/32/</text><rect x="452.5" y="438.5" width="22" height="9" class="net_111,112,113,114,115,116,117,118,119,120,121,122,123,124,125,126,127,128,129,130,131,132,133,134,135,136,137,138,139,140,141,142 width_32 busLabel_32" style="fill: white; stroke: none"/><text x="451.5" y="446.5" class="net_111,112,113,114,115,116,117,118,119,120,121,122,123,124,125,126,127,128,129,130,131,132,133,134,135,136,137,138,139,140,141,142 width_32 busLabel_32">/32/</text><rect x="341" y="186" width="22" height="9" class="net_76,77,78,79,80,81,82,83,84,85,86,87,88,89,90,91,92,93,94,95,96,97,98,99,100,101,102,103,104,105,106,107 width_32 busLabel_32" style="fill: white; stroke: none"/><text x="340" y="194" class="net_76,77,78,79,80,81,82,83,84,85,86,87,88,89,90,91,92,93,94,95,96,97,98,99,100,101,102,103,104,105,106,107 width_32 busLabel_32">/32/</text><rect x="540" y="186" width="22" height="9" class="net_143,144,145,146,147,148,149,150,151,152,153,154,155,156,157,158,159,160,161,162,163,164,165,166,167,168,169,170,171,172,173,174 width_32 busLabel_32" style="fill: white; stroke: none"/><text x="539" y="194" class="net_143,144,145,146,147,148,149,150,151,152,153,154,155,156,157,158,159,160,161,162,163,164,165,166,167,168,169,170,171,172,173,174 width_32 busLabel_32">/32/</text><rect x="716" y="276" width="22" height="9" class="net_175,176,177,178,179,180,181,182,183,184,185,186,187,188,189,190,191,192,193,194,195,196,197,198,199,200,201,202,203,204,205,206 width_32 busLabel_32" style="fill: white; stroke: none"/><text x="715" y="284" class="net_175,176,177,178,179,180,181,182,183,184,185,186,187,188,189,190,191,192,193,194,195,196,197,198,199,200,201,202,203,204,205,206 width_32 busLabel_32">/32/</text><rect x="452.5" y="376" width="16" height="9" class="net_4,5,6,7,8,9 width_6 busLabel_6" style="fill: white; stroke: none"/><text x="451.5" y="384" class="net_4,5,6,7,8,9 width_6 busLabel_6">/6/</text></svg>